<svg xmlns="http://www.w3.org/2000/svg" width="168px" height="50px" enable-background="new 0 0 168 50" viewBox="0 0 168 50">
<g fill="#333">
<path d="m62.7 34.1h-5.7l-1.4 3.8h-2.6l5.6-14.3h2.4l5.7 14.3h-2.6zm-5-2h4.3l-1.6-4.1c-.2-.6-.4-1.2-.6-1.9-.2.6-.4 1.2-.6 1.9z"/>
<path d="m67.9 29.9c0-.8 0-1.7-.1-2.6h2.3c.1.4.1.9.2 1.4.9-1 2-1.6 3.3-1.6.7 0 1.4.2 2 .5.6.4 1.1.9 1.5 1.7s.6 1.8.6 2.9c0 1.2-.2 2.3-.6 3.2s-1 1.6-1.8 2c-.8.5-1.6.7-2.6.7-.7 0-1.4-.1-2.1-.4v4.4l-2.4.2v-12.4zm6.4 5.4c.5-.7.7-1.6.7-2.9 0-1.2-.2-2.1-.6-2.6s-1-.8-1.6-.8c-.5 0-.9.1-1.3.3s-.8.5-1.1.9v5.7c.2.1.5.2.8.3s.6.1 1 .1c.9 0 1.6-.3 2.1-1z"/>
<path d="m79.1 29.9c0-.8 0-1.7-.1-2.6h2.3c.1.4.1.9.2 1.4.9-1 2-1.6 3.3-1.6.7 0 1.4.2 2 .5.6.4 1.1.9 1.5 1.7s.6 1.8.6 2.9c0 1.2-.2 2.3-.6 3.2s-1 1.6-1.8 2c-.8.5-1.6.7-2.6.7-.7 0-1.4-.1-2.1-.4v4.4l-2.4.2v-12.4zm6.4 5.4c.5-.7.7-1.6.7-2.9 0-1.2-.2-2.1-.6-2.6s-1-.8-1.6-.8c-.5 0-.9.1-1.3.3s-.8.5-1.1.9v5.7c.2.1.5.2.8.3s.6.1 1 .1c.9 0 1.6-.3 2.1-1z"/>
<path d="m93.4 37.2c-1.1-.6-1.9-1.4-2.4-2.5-.6-1.1-.8-2.4-.8-3.9 0-1.6.3-3 1-4.1s1.5-2 2.7-2.5c1.1-.6 2.4-.8 3.8-.8.8 0 1.6.1 2.4.3s1.4.4 2.1.7l-.6 1.9c-1.3-.6-2.5-.9-3.7-.9-1 0-1.9.2-2.6.6s-1.3 1-1.7 1.9c-.4.8-.6 1.8-.6 3 0 1 .2 1.9.5 2.7s.8 1.4 1.5 1.9 1.6.7 2.6.7c.5 0 .9 0 1.4-.1s.9-.2 1.3-.3v-2.9h-3.3v-1.9h5.7v6c-.8.4-1.7.7-2.6.9s-1.8.3-2.7.3c-1.7-.1-3-.4-4-1z"/>
<path d="m111.2 37.9c-.1-.4-.1-.9-.2-1.4-.4.4-.9.8-1.5 1.1s-1.3.5-2 .5c-.6 0-1.2-.1-1.7-.4-.5-.2-.9-.6-1.2-1.1s-.4-1.1-.4-1.8c0-1 .4-1.9 1.1-2.5s2-.9 3.7-.9c.7 0 1.3 0 1.9.1v-.2c0-.9-.2-1.6-.6-2s-1-.6-1.7-.6c-.5 0-1.1.1-1.7.2-.6.2-1.1.3-1.6.5l-.4-1.8c.4-.2 1-.4 1.7-.5.7-.2 1.5-.2 2.3-.2.9 0 1.7.1 2.4.4.6.3 1.1.8 1.5 1.4.4.7.5 1.6.5 2.8v4.2c0 .4 0 1.1.1 2h-2.2zm-1.5-2c.5-.2.9-.5 1.2-.9v-2c-.7-.1-1.2-.1-1.6-.1-1 0-1.7.2-2.1.5s-.6.8-.6 1.3.1.9.4 1.2.7.4 1.1.4c.6 0 1.1-.1 1.6-.4z"/><path d="m115.5 35.4v-12.6l2.4-.2v12.4c0 .5.1.8.2 1 .2.2.4.3.7.3.2 0 .4 0 .6-.1l.3 1.7c-.2.1-.5.2-.8.2-.3.1-.6.1-.9.1-1.7-.1-2.5-1-2.5-2.8z"/><path d="m121.6 35.4v-12.6l2.4-.2v12.4c0 .5.1.8.2 1 .2.2.4.3.7.3.2 0 .4 0 .6-.1l.3 1.7c-.2.1-.5.2-.8.2-.3.1-.6.1-.9.1-1.7-.1-2.5-1-2.5-2.8z"/><path d="m136 32.9h-7c.1 2.2 1.2 3.3 3.2 3.3.5 0 1-.1 1.5-.2s1-.3 1.5-.5l.5 1.7c-1.2.6-2.5.9-4 .9-1.1 0-2.1-.2-2.9-.6s-1.4-1-1.8-1.8-.6-1.8-.6-2.9c0-1.2.2-2.2.6-3 .4-.9 1-1.5 1.7-1.9s1.6-.7 2.6-.7 1.8.2 2.5.7 1.2 1.1 1.5 1.9.5 1.6.5 2.6v.5zm-2.4-1.6c0-.8-.3-1.5-.6-1.9-.4-.4-.9-.6-1.5-.6s-1.1.2-1.5.6-.7 1.1-.8 1.9z"/><path d="m138 29.9c0-.6 0-1.5-.1-2.7h2.3c0 .3.1.7.1 1.1s.1.7.1 1c.3-.5.6-.9.8-1.2.3-.3.6-.6 1-.8s.8-.3 1.2-.3.7 0 1 .1l-.3 2.1c-.2-.1-.5-.1-.8-.1-.6 0-1.1.1-1.5.4s-.9.8-1.4 1.4v6.8h-2.4z"/><path d="m145.9 42.3c-.4-.1-.6-.1-.9-.2l.4-1.8c.2 0 .4.1.6.1.3 0 .5.1.7.1 1.1 0 1.9-.7 2.4-2.1l.2-.4-3.9-10.7h2.6l2 6c.3 1 .5 1.8.6 2.4.2-.8.4-1.5.7-2.3l2-6.1h2.5l-3.9 10.8c-.4 1-.8 1.8-1.2 2.5-.4.6-.9 1.1-1.5 1.4s-1.3.5-2.1.5c-.5-.1-.9-.2-1.2-.2z"/>
</g>
<path clip-rule="evenodd" d="m34.9 9.6h-13.8c-6.5 0-8.9 2.4-8.9 8.9v13.8c0 6.5 2.4 8.9 8.9 8.9h13.8c6.5 0 8.9-2.4 8.9-8.9v-13.8c0-6.5-2.4-8.9-8.9-8.9z" fill="#ce0e2d" fill-rule="evenodd"/>
<path d="m18.5 25.4h.8v4.1h-.8v-1.7h-1.9v1.7h-.8v-4.1h.8v1.6h1.9zm4.7 2.3c0 .7-.3 1-.9 1s-.9-.4-.9-1.1v-2.3h-.8v2.4c0 1.2.6 1.8 1.8 1.8 1.1 0 1.8-.7 1.8-1.9v-2.3h-.8v2.4zm9.7.5-.9-2.8h-.7l-.9 2.8-.9-2.8h-.9l1.4 4.1h.7l.9-2.7.9 2.7h.7l1.4-4.1h-.9zm3.2-.5h1.5v-.7h-1.5v-.8h2.2v-.8h-3v4.1h3.1v-.8h-2.3zm3.3 1.8h.8v-4.1h-.8zm-13.7-.9-.4.9h-.9l1.8-4.1h.8l1.8 4.1h-.9l-.4-.9zm.3-.7h1.3l-.6-1.5z" fill="#fff"/>
<path d="m28 20.1c-2.9 0-5.2-2.4-5.2-5.2h.7c0 2.5 2 4.5 4.5 4.5s4.5-2 4.5-4.5h.7c.1 2.9-2.3 5.2-5.2 5.2z" fill="#fff"/>
<path d="m54.4 18.2c-.5-.3-.9-.7-1.2-1.2s-.4-1.2-.4-1.9.1-1.4.4-2 .7-1 1.3-1.3c.5-.3 1.2-.5 1.9-.5s1.3.1 1.8.4.9.7 1.2 1.2.4 1.2.4 1.9c0 .8-.1 1.4-.4 2s-.7 1-1.3 1.3c-.5.3-1.2.5-1.9.5s-1.3-.1-1.8-.4zm3.1-.9c.3-.2.6-.5.8-.9s.3-.9.3-1.4-.1-1-.2-1.4-.4-.7-.7-.9-.8-.4-1.3-.4-.9.1-1.3.4c-.3.2-.6.6-.8 1s-.3.8-.3 1.3.1 1 .2 1.4c.2.4.4.7.7 1 .3.2.7.4 1.2.4.7-.2 1.1-.3 1.4-.5z" fill="#000000"/>
<path d="m62.3 12.5h-2.2l.1-1h5.5l-.1 1h-2.1v6h-1.2z" fill="#000000"/>
<path d="m72.3 18.5h-1.4l-2.1-3.1h-.8v3.1h-1.2v-7.1h1.2v2.9h.6l1.5-2.1c.2-.3.4-.5.6-.7.2-.1.5-.2.8-.2s.5 0 .7.1l-.3 1c-.1-.1-.3-.1-.4-.1s-.3 0-.4.1-.2.2-.3.3l-1.3 1.9z" fill="#000000"/>
<path d="m73.2 11.4h1.9c.9 0 1.6.2 2.1.5s.7.9.7 1.6c0 .5-.1.9-.3 1.2s-.5.6-.9.8-.8.3-1.3.3c-.3 0-.6 0-.9-.1v2.7h-1.2v-7zm3.1 3.2c.3-.2.4-.6.4-1s-.1-.7-.4-.9-.7-.3-1.2-.3h-.7v2.5c.3 0 .5.1.7.1.5-.1.9-.2 1.2-.4z" fill="#000000"/>
<path d="m80.2 18.2c-.5-.3-.9-.7-1.2-1.2s-.4-1.2-.4-1.9.1-1.4.4-2 .7-1 1.3-1.3c.5-.3 1.2-.5 1.9-.5s1.3.1 1.8.4.9.7 1.2 1.2.4 1.2.4 1.9c0 .8-.1 1.4-.4 2s-.7 1-1.3 1.3c-.5.3-1.2.5-1.9.5-.6 0-1.3-.1-1.8-.4zm3.2-.9c.3-.2.6-.5.8-.9s.3-.9.3-1.4-.1-1-.2-1.4-.4-.7-.7-.9-.8-.4-1.3-.4-.9.1-1.3.4c-.3.2-.6.6-.8 1-.2.3-.3.8-.3 1.3s.1 1 .2 1.4.4.7.7 1c.3.2.7.4 1.2.4.6-.2 1-.3 1.4-.5z" fill="#000000"/>
<path d="m91.9 18.5v-3.9c0-.5 0-1 .1-1.7l-3.5 5.6h-1.5v-7.1h1.1v4 1.4l3.5-5.5h1.4v7.1h-1.1zm-2.8-7.7c-.3-.1-.5-.3-.6-.5s-.2-.4-.3-.7h.9c.1.5.4.8.9.8s.8-.3.9-.8h.9c0 .2-.1.5-.3.7s-.3.4-.6.5-.6.2-1 .2c-.2 0-.5 0-.8-.2z" fill="#000000"/>
<path d="m96.2 12.5h-2.2l.1-1h5.5l-.1 1h-2.1v6h-1.2z" fill="#000000"/>
<path d="m100.7 11.4h4.2l-.1 1h-2.8v1.9h2.7v.9h-2.7v2.2h3l-.1 1h-4.1v-7z" fill="#000000"/>
<path d="m113.4 15c.3.2.5.4.6.6.1.3.2.5.2.9s-.1.7-.3 1-.5.5-.9.7-.8.3-1.4.3h-2.3v-7.1h2.2c.7 0 1.3.1 1.7.4s.6.7.6 1.2c0 .4-.1.8-.4 1.1-.2.3-.6.5-.9.6.3.1.6.2.9.3zm-2.8-.7h.8c.3 0 .5-.1.7-.2s.3-.2.4-.4.2-.4.2-.6c0-.3-.1-.5-.3-.6s-.5-.2-.9-.2h-.8v2zm2 3c.2-.2.4-.5.4-.9s-.1-.7-.4-.9-.7-.3-1.2-.3h-.8v2.4h.9c.5 0 .9-.1 1.1-.3z" fill="#000000"/>
</svg>