<svg xmlns="http://www.w3.org/2000/svg" xmlns:xlink="http://www.w3.org/1999/xlink" width="168px" height="50px" viewBox="0 0 168 50" version="1.1">
    <defs/>
    <g id="Welcome" stroke="none" stroke-width="1" fill="none" fill-rule="evenodd">
        <g id="Desktop-HD-ios" transform="translate(-38.000000, -605.000000)" fill-rule="nonzero">
            <g id="itunes" transform="translate(39.000000, 606.000000)">
                <path d="M31.4784213,11.0965396 C33.4579713,8.65903486 33.0450463,6.12765957 33.0450463,6.12765957 C33.0450463,6.12765957 30.2749213,6.14017565 28.2829213,8.83321684 C26.5119088,11.2258723 26.9632213,13.2732929 26.9632213,13.2732929 C26.9632213,13.2732929 29.3650338,13.6988393 31.4763463,11.0954966 L31.4784213,11.0965396 Z M35.2787838,22.6008945 C35.2787838,18.428871 38.5593588,16.7110403 38.5593588,16.7110403 C38.5593588,16.7110403 36.8806838,13.6028828 32.6207088,13.6028828 C30.1441963,13.6028828 28.2424588,15.0474459 27.2174088,15.0474459 C26.0242838,15.0474459 24.2428963,13.6884092 21.9469088,13.6884092 C18.4131838,13.6884092 14.6470588,16.9321575 14.6470588,23.1150964 C14.6470588,29.3971209 19.0958588,37.213407 22.6192088,37.213407 C23.8476088,37.213407 25.7358588,35.9430258 27.6365588,35.9430258 C29.5040588,35.9430258 30.8797838,37.1675147 32.6528713,37.1675147 C36.5102963,37.1675147 39.3654963,28.9277682 39.3654963,28.9277682 C39.3654963,28.9277682 35.2808588,27.3058941 35.2808588,22.6008945 L35.2787838,22.6008945 Z" id="Shape" fill="#212121"/>
                <g id="Group" transform="translate(49.800000, 7.301041)">
                    <path d="M5.07117794,0.63101856 C5.62105294,0.286826618 6.37220294,0 7.36924044,0 C8.94001544,0 9.92460294,0.809372567 9.92460294,2.01300136 C9.92460294,3.012201 9.24504044,3.71518696 8.31959044,3.94256225 L8.31959044,3.96550837 C9.36331544,4.08336804 10.2078404,4.79991308 10.2078404,5.90549932 C10.2078404,7.64419013 8.58934044,8.28876777 7.12335294,8.28876777 C6.34834044,8.28876777 5.52871544,8.12188683 4.88235294,7.74014667 L5.22472794,6.60952829 C5.61067794,6.8233445 6.37324044,7.09661204 7.06421544,7.09661204 C8.09652794,7.09661204 8.68271544,6.59596922 8.68271544,5.83457492 C8.68271544,4.81034314 7.67322794,4.54854866 6.80484044,4.54854866 L6.18441544,4.54854866 L6.18441544,3.45339249 L6.80691544,3.45339249 C7.71991544,3.45339249 8.42541544,2.96317972 8.42541544,2.23829063 C8.42541544,1.58328293 7.92015294,1.19006971 7.12335294,1.19006971 C6.51434044,1.19006971 5.86797794,1.44039113 5.42392794,1.68028248 L5.07117794,0.629975555 L5.07117794,0.63101856 Z M15.1266279,8.15630602 L15.0332529,7.51277139 L14.9979779,7.51277139 C14.6452279,7.96439294 14.0476279,8.28668176 13.3089279,8.28668176 C12.1593779,8.28668176 11.5140529,7.44184699 11.5140529,6.55946401 C11.5140529,5.09508375 12.7943279,4.35663558 14.9046029,4.36915165 L14.9046029,4.27319511 C14.9046029,3.89249796 14.7520904,3.2614794 13.7426029,3.2614794 C13.1802779,3.2614794 12.5940904,3.4387904 12.2071029,3.68911182 L11.9269779,2.73684744 C12.3482029,2.47296695 13.0869029,2.22368855 13.9895279,2.22368855 C15.8176029,2.22368855 16.3446529,3.4022852 16.3446529,4.66432232 L16.3446529,6.76076415 C16.3446529,7.28226709 16.3695529,7.79646899 16.4276529,8.153177 L15.1266279,8.153177 L15.1266279,8.15526301 L15.1266279,8.15630602 Z M14.9398779,5.32245903 C13.9200154,5.2984699 12.9478779,5.52480217 12.9478779,6.40718515 C12.9478779,6.97666636 13.3110029,7.23950385 13.7675029,7.23950385 C14.3422779,7.23950385 14.7635029,6.8588067 14.8931904,6.44160435 C14.9274279,6.33521775 14.9388404,6.21631507 14.9388404,6.12140154 L14.9388404,5.32350204 L14.9398779,5.32245903 Z M22.0986279,2.3571933 L22.0986279,3.51180081 L19.7663279,3.51180081 L19.7663279,8.15526301 L18.3242029,8.15526301 L18.3242029,2.35615029 L22.0986279,2.35615029 L22.0986279,2.3571933 Z M23.4432279,4.28571118 C23.4432279,3.52431689 23.4204029,2.90477139 23.3975779,2.35823631 L24.6633279,2.35823631 L24.7338779,3.25104934 L24.7577404,3.25104934 C25.1800029,2.59604165 25.8471154,2.22681756 26.7155029,2.22681756 C28.0289779,2.22681756 29.1183529,3.37099502 29.1183529,5.18061023 C29.1183529,7.27705206 27.8173279,8.28876777 26.5163029,8.28876777 C25.8004279,8.28876777 25.2038654,7.97899502 24.9102529,7.5138144 L24.8863904,7.5138144 L24.8863904,10.5134993 L23.4463404,10.5134993 L23.4463404,4.28466818 L23.4432279,4.28571118 Z M24.8853529,5.7250593 C24.8853529,5.87108013 24.8978029,6.00145586 24.9330779,6.1318316 C25.0731404,6.72634495 25.5898154,7.15397737 26.1988279,7.15397737 C27.1139029,7.15397737 27.6534029,6.38215301 27.6534029,5.23901856 C27.6534029,4.21478678 27.1605904,3.38246809 26.2351404,3.38246809 C25.6385779,3.38246809 25.0866279,3.82053056 24.9465654,4.46510819 C24.9112904,4.58296786 24.8874279,4.71542961 24.8874279,4.83433228 L24.8874279,5.72610231 L24.8853529,5.7250593 Z M31.4942279,2.3571933 L32.5255029,5.46535084 C32.6427404,5.82205885 32.7599779,6.26220733 32.8419404,6.59492621 L32.8761779,6.59492621 C32.9695529,6.26116433 33.0753779,5.83353191 33.1812029,5.45179176 L34.0713779,2.35615029 L35.6193279,2.35615029 L34.1875779,6.3091426 C33.4032279,8.47650883 32.8751404,9.44128927 32.1955779,10.0368456 C31.6332529,10.5479185 31.0470654,10.7387886 30.6839404,10.7878099 L30.3550529,9.54663287 C30.6019779,9.48822454 30.9070029,9.35680579 31.1995779,9.14298959 C31.4693279,8.96567859 31.7868029,8.61940063 31.9860029,8.22723042 C32.0441029,8.11980081 32.0793779,8.03636034 32.0793779,7.96439294 C32.0793779,7.90598461 32.0690029,7.82254414 31.9963779,7.67965233 L29.9110029,2.3571933 L31.4921529,2.3571933 L31.4942279,2.3571933 Z M37.5169154,4.70291354 L38.2078904,4.70291354 C38.9963904,4.70291354 39.4528904,4.38166772 39.4528904,3.96550837 C39.4528904,3.54830602 39.0659029,3.26252241 38.4216154,3.26252241 C37.9402154,3.26252241 37.4121279,3.42940335 37.0137279,3.67972476 L36.7076654,2.80985785 C37.3280904,2.41664464 38.1031029,2.23829063 38.8418029,2.23829063 C39.8035654,2.23829063 40.9759404,2.61898778 40.9759404,3.77359529 C40.9759404,4.52455953 40.3181654,4.94176188 39.7205654,5.08465369 L39.7205654,5.10968583 C40.4820904,5.1931263 41.2332404,5.65726392 41.2332404,6.51357175 C41.2332404,7.85904934 39.7433904,8.2762517 38.5710154,8.2762517 C37.8198654,8.2762517 37.0707904,8.08642463 36.5063904,7.75266274 L36.8363154,6.82438751 C37.2347154,7.03820371 37.8447654,7.21655772 38.4185029,7.21655772 C39.2153029,7.21655772 39.6489779,6.88279584 39.6489779,6.43013128 C39.6489779,5.82310186 39.0285529,5.63223178 38.2203404,5.63223178 L37.5169154,5.63223178 L37.5169154,4.70395654 L37.5169154,4.70291354 Z M44.2316154,2.3571933 L44.2316154,4.44111906 C44.2316154,5.35687823 44.1963404,5.97746673 44.1486154,6.78579629 L44.1828529,6.78579629 C44.4878779,6.10784246 44.6642529,5.68021005 44.9568279,5.07213762 L46.3636779,2.35823631 L48.1118654,2.35823631 L48.1118654,8.15734903 L46.7392529,8.15734903 L46.7392529,6.08489633 C46.7392529,5.1566211 46.7745279,4.72898868 46.8326279,3.6338325 L46.7859404,3.6338325 C46.5058154,4.32221639 46.3169904,4.73941874 46.0347904,5.2995129 C45.5886654,6.15790675 45.0740654,7.20404165 44.5822904,8.15734903 L42.8579654,8.15734903 L42.8579654,2.35823631 L44.2305779,2.35823631 L44.2316154,2.3571933 Z M54.2984779,2.3571933 L54.2984779,3.48885469 L52.5866029,3.48885469 L52.5866029,8.15630602 L51.1424029,8.15630602 L51.1424029,3.48885469 L49.4305279,3.48885469 L49.4305279,2.3571933 L54.2964029,2.3571933 L54.2984779,2.3571933 Z M56.4876029,5.66873699 C56.5218404,6.71487189 57.3310904,7.16857945 58.2440904,7.16857945 C58.9132779,7.16857945 59.3936404,7.07262291 59.8283529,6.90574196 L60.0379279,7.91745767 C59.5451154,8.11980081 58.8655529,8.27416569 58.0459279,8.27416569 C56.1929529,8.27416569 55.1025404,7.12060118 55.1025404,5.34540516 C55.1025404,3.7391761 56.0643029,2.22681756 57.8934154,2.22681756 C59.7453529,2.22681756 60.3543654,3.77255229 60.3543654,5.04710548 C60.3543654,5.32141603 60.3315404,5.53731824 60.3087154,5.66665097 L56.4865654,5.66665097 L56.4876029,5.66873699 Z M58.9952404,4.6434622 C59.0056154,4.10735718 58.7721779,3.2249742 57.8104154,3.2249742 C56.9202404,3.2249742 56.5446654,4.04894885 56.4865654,4.6434622 L58.9942029,4.6434622 L58.9952404,4.6434622 Z M64.8633404,2.4281177 C65.2856029,2.3571933 66.1519154,2.28522589 66.9383404,2.28522589 C67.9001029,2.28522589 69.6358404,2.41664464 69.6358404,3.74960616 C69.6358404,4.48805432 69.0724779,4.90525668 68.4634654,5.03667542 L68.4634654,5.06066455 C69.3069529,5.19104029 69.8921029,5.66560797 69.8921029,6.47706655 C69.8921029,8.07286555 67.8305904,8.22723042 66.6810404,8.22723042 C65.9651654,8.22723042 65.2026029,8.18029516 64.8633404,8.14378995 L64.8633404,2.4281177 Z M66.2577404,7.27496605 C66.4922154,7.29999819 66.6675529,7.31042825 66.9601279,7.31042825 C67.6168654,7.31042825 68.4147029,7.13311725 68.4147029,6.45307741 C68.4147029,5.79806971 67.7818279,5.58425351 66.8792029,5.58425351 L66.2567029,5.58425351 L66.2567029,7.27392304 L66.2577404,7.27496605 Z M66.2701904,4.70291354 L66.8667529,4.70291354 C67.6054529,4.70291354 68.2155029,4.48909733 68.2155029,3.94151924 C68.2155029,3.47738162 67.8160654,3.2260172 66.9601279,3.2260172 C66.6800029,3.2260172 66.4932529,3.25000634 66.2691529,3.27295247 L66.2691529,4.70187053 L66.2701904,4.70291354 Z" id="Shape" fill="#000000"/>
                    <path d="M13.3246125,28.6764038 L10.6323,28.6764038 L9.156975,23.923426 L4.0286125,23.923426 L2.6228,28.6764038 L0,28.6764038 L5.0806375,12.4941675 L8.2201125,12.4941675 L13.3246125,28.6764038 Z M8.7118875,21.9281557 L7.3776625,17.7039819 C7.2376,17.2721775 6.9730375,16.2562897 6.5819,14.6552757 L6.5352125,14.6552757 C6.3795875,15.3436596 6.1305875,16.3605903 5.7861375,17.7039819 L4.4747375,21.9281557 L8.7118875,21.9281557 Z M26.3929625,22.6989371 C26.3929625,24.6837773 25.8700625,26.2514151 24.8242625,27.4028936 C23.8863625,28.4281684 22.7243625,28.9402843 21.3341125,28.9402843 C19.834925,28.9402843 18.7590375,28.3874912 18.1033375,27.2839909 L18.0556125,27.2839909 L18.0556125,33.4304246 L15.5261875,33.4304246 L15.5261875,20.8486446 C15.5261875,19.6012096 15.4950625,18.3214414 15.4328125,17.008297 L17.656175,17.008297 L17.797275,18.8575464 L17.8460375,18.8575464 C18.689525,17.4651335 19.9687625,16.7694486 21.6868625,16.7694486 C23.02835,16.7694486 24.14885,17.3118117 25.04525,18.4007098 C25.9447625,19.491694 26.394,20.9247841 26.394,22.6999801 L26.3929625,22.6989371 Z M23.81685,22.7928076 C23.81685,21.6580172 23.56785,20.7224409 23.067775,19.9850358 C22.52205,19.2163404 21.7875,18.8325143 20.868275,18.8325143 C20.2426625,18.8325143 19.67515,19.0463305 19.1698875,19.4687478 C18.6615125,19.8942943 18.3295125,20.4491734 18.1738875,21.1375573 C18.0971125,21.4608891 18.0576875,21.7216406 18.0576875,21.9302417 L18.0576875,23.8744047 C18.0576875,24.7244545 18.3129125,25.4409995 18.82025,26.0250828 C19.328625,26.6091661 19.9874375,26.9012078 20.7987625,26.9012078 C21.7511875,26.9012078 22.4919625,26.5257257 23.0231625,25.7747614 C23.5522875,25.0206682 23.818925,24.0277266 23.818925,22.7948936 L23.81685,22.7928076 Z M39.4831,22.6989371 C39.4831,24.6837773 38.9602,26.2514151 37.9133625,27.4028936 C36.9775375,28.4281684 35.8134625,28.9402843 34.4252875,28.9402843 C32.9261,28.9402843 31.849175,28.3874912 31.1945125,27.2839909 L31.1467875,27.2839909 L31.1467875,33.4304246 L28.6173625,33.4304246 L28.6173625,20.8486446 C28.6173625,19.6012096 28.5862375,18.3214414 28.5239875,17.008297 L30.74735,17.008297 L30.88845,18.8575464 L30.9351375,18.8575464 C31.7775875,17.4651335 33.056825,16.7694486 34.7759625,16.7694486 C36.11745,16.7694486 37.23795,17.3118117 38.1374625,18.4007098 C39.032825,19.491694 39.4820625,20.9247841 39.4820625,22.6999801 L39.4831,22.6989371 Z M36.908025,22.7928076 C36.908025,21.6580172 36.659025,20.7224409 36.1579125,19.9850358 C35.61115,19.2163404 34.8797125,18.8325143 33.9584125,18.8325143 C33.3328,18.8325143 32.7673625,19.0463305 32.2589875,19.4687478 C31.7506125,19.8942943 31.4186125,20.4491734 31.2629875,21.1375573 C31.18725,21.4608891 31.1467875,21.7216406 31.1467875,21.9302417 L31.1467875,23.8744047 C31.1467875,24.7244545 31.3999375,25.4409995 31.9041625,26.0250828 C32.4125375,26.6091661 33.0723875,26.9012078 33.8857875,26.9012078 C34.8402875,26.9012078 35.580025,26.5257257 36.1101875,25.7747614 C36.6413875,25.0206682 36.9090625,24.0277266 36.9090625,22.7948936 L36.908025,22.7928076 Z M54.1191125,24.1393282 C54.1191125,25.516096 53.6522375,26.6352413 52.7184875,27.4998932 C51.6892875,28.4448565 50.2575375,28.9183812 48.41805,28.9183812 C46.718625,28.9183812 45.357425,28.5814903 44.3271875,27.9087515 L44.913375,25.7476433 C46.0235,26.4360272 47.241525,26.7802191 48.5684875,26.7802191 C49.5209125,26.7802191 50.2616875,26.5591019 50.7949625,26.1189534 C51.3240875,25.6788049 51.5896875,25.0863775 51.5896875,24.3510584 C51.5896875,23.6939647 51.3718125,23.1411716 50.9339875,22.692679 C50.4982375,22.2441865 49.7719875,21.8269842 48.7552375,21.441072 C45.992375,20.383464 44.6125,18.8356433 44.6125,16.7996958 C44.6125,15.4698633 45.095975,14.3778361 46.065,13.5298723 C47.029875,12.6798225 48.31845,12.2553191 49.92865,12.2553191 C51.366625,12.2553191 52.55975,12.5118986 53.5111375,13.0240145 L52.8782625,15.1371444 C51.9901625,14.6417166 50.9837875,14.3924382 49.8591375,14.3924382 C48.9689625,14.3924382 48.274875,14.6177275 47.7758375,15.065177 C47.3546125,15.4656913 47.1429625,15.951732 47.1429625,16.5306003 C47.1429625,17.1699629 47.3836625,17.6987669 47.8671375,18.1159692 C48.2894,18.4987524 49.0540375,18.9149117 50.1641625,19.3634043 C51.5212125,19.9234984 52.5192875,20.5795491 53.1604625,21.3305134 C53.8016375,22.0814776 54.12015,23.0180969 54.12015,24.1361992 L54.1191125,24.1393282 Z M62.4813625,18.9535029 L59.6936,18.9535029 L59.6936,24.6191109 C59.6936,26.060545 60.1843375,26.7802191 61.16685,26.7802191 C61.6202375,26.7802191 61.994775,26.7384989 62.2915,26.6592304 L62.36205,28.6284255 C61.86405,28.8192956 61.20835,28.9152522 60.39495,28.9152522 C59.3958375,28.9152522 58.6146,28.6023504 58.052275,27.9796759 C57.492025,27.3538723 57.2087875,26.3066944 57.2087875,24.8339701 L57.2087875,18.9503739 L55.5467125,18.9503739 L55.5467125,17.006211 L57.2067125,17.006211 L57.2067125,14.8680489 L59.691525,14.1003966 L59.691525,17.006211 L62.4792875,17.006211 L62.4792875,18.9535029 L62.4813625,18.9535029 Z M75.0558625,22.7469153 C75.0558625,24.5408855 74.5557875,26.0115238 73.556675,27.1640453 C72.5088,28.349943 71.11855,28.9413273 69.385925,28.9413273 C67.717625,28.9413273 66.38755,28.3718461 65.3957,27.2360127 C64.4028125,26.0991363 63.9068875,24.6670892 63.9068875,22.9388284 C63.9068875,21.1312992 64.4173375,19.6502309 65.4403125,18.4987524 C66.46225,17.3462309 67.8410875,16.7704916 69.572675,16.7704916 C71.24305,16.7704916 72.5866125,17.3389298 73.6012875,18.4758062 C74.5703125,19.5782635 75.0537875,21.0019665 75.0537875,22.7469153 L75.0558625,22.7469153 Z M72.4330625,22.8303558 C72.4330625,21.7560598 72.2089625,20.8319565 71.7545375,20.0611752 C71.2254125,19.1297709 70.4659625,18.6656333 69.4844875,18.6656333 C68.4677375,18.6656333 67.6958375,19.1318569 67.165675,20.0611752 C66.71125,20.8329995 66.48715,21.7696188 66.48715,22.8772911 C66.48715,23.9536732 66.713325,24.8767334 67.1667125,25.6454287 C67.713475,26.57579 68.4781125,27.0399276 69.4627,27.0399276 C70.427575,27.0399276 71.18495,26.5664029 71.73275,25.6193536 C72.199625,24.8370991 72.4341,23.9036089 72.4341,22.8293128 L72.4330625,22.8303558 Z M83.275975,19.2883078 C83.026975,19.2413726 82.7593,19.2152974 82.479175,19.2152974 C81.5900375,19.2152974 80.902175,19.5594894 80.4176625,20.2499593 C79.9964375,20.8569887 79.7847875,21.626727 79.7847875,22.5550023 L79.7847875,28.6753608 L77.2574375,28.6753608 L77.2813,20.6817637 C77.2813,19.3362861 77.250175,18.1117972 77.18585,17.008297 L79.3884625,17.008297 L79.4818375,19.2403296 L79.55135,19.2403296 C79.819025,18.4726772 80.24025,17.8562608 80.8171,17.3921231 C81.37735,16.9749208 81.9874,16.7663196 82.6431,16.7663196 C82.877575,16.7663196 83.089225,16.7840507 83.275975,16.8142979 L83.275975,19.2883078 Z M94.584725,22.2911218 C94.584725,22.7552594 94.5536,23.1463866 94.49135,23.4665894 L86.90515,23.4665894 C86.936275,24.6191109 87.3025125,25.5004509 88.006975,26.1095663 C88.6471125,26.6519294 89.4729625,26.9251969 90.4866,26.9251969 C91.61125,26.9251969 92.6363,26.7405849 93.5576,26.3724038 L93.95185,28.172632 C92.8759625,28.6545007 91.605025,28.894392 90.138,28.894392 C88.37425,28.894392 86.98815,28.362459 85.9797,27.298593 C84.973325,26.234727 84.4701375,24.805809 84.4701375,23.0118388 C84.4701375,21.2533309 84.9370125,19.7868646 85.87595,18.6186981 C86.8584625,17.371263 88.185425,16.7475455 89.8558,16.7475455 C91.49505,16.7475455 92.737975,17.371263 93.580425,18.6186981 C94.25065,19.6095536 94.5868,20.8350856 94.5868,22.2900788 L94.584725,22.2911218 Z M92.173575,21.618383 C92.1881,20.8496876 92.024175,20.1863359 91.6818,19.6262417 C91.243975,18.9034387 90.571675,18.5446446 89.6659375,18.5446446 C88.8400875,18.5446446 88.16675,18.8961376 87.6531875,19.6012096 C87.2319625,20.1623468 86.981925,20.8340426 86.9041125,21.61734 L92.1725375,21.61734 L92.1725375,21.619426 L92.173575,21.618383 Z" id="Shape" fill="#000000"/>
                </g>
            </g>
        </g>
    </g>
</svg>