<svg xmlns="http://www.w3.org/2000/svg" xmlns:xlink="http://www.w3.org/1999/xlink" width="164px" height="50px" viewBox="0 0 164 50" version="1.1">
    <defs>
        <linearGradient x1="90.7661538%" y1="4.8392%" x2="-38.3292308%" y2="71.9688%" id="linearGradient-1">
            <stop stop-color="#00A0FF" offset="0%"/>
            <stop stop-color="#00A1FF" offset="0.657445%"/>
            <stop stop-color="#00BEFF" offset="26.01%"/>
            <stop stop-color="#00D2FF" offset="51.22%"/>
            <stop stop-color="#00DFFF" offset="76.04%"/>
            <stop stop-color="#00E3FF" offset="100%"/>
        </linearGradient>
        <linearGradient x1="107.727094%" y1="49.4294118%" x2="-130.66601%" y2="49.4294118%" id="linearGradient-2">
            <stop stop-color="#FFE000" offset="0%"/>
            <stop stop-color="#FFBD00" offset="40.87%"/>
            <stop stop-color="#FFA500" offset="77.54%"/>
            <stop stop-color="#FF9C00" offset="100%"/>
        </linearGradient>
        <linearGradient x1="86.3886228%" y1="17.8158218%" x2="-49.8886228%" y2="194.393566%" id="linearGradient-3">
            <stop stop-color="#FF3A44" offset="0%"/>
            <stop stop-color="#C31162" offset="100%"/>
        </linearGradient>
        <linearGradient x1="-18.5796407%" y1="-54.525874%" x2="42.2742515%" y2="24.6908814%" id="linearGradient-4">
            <stop stop-color="#32A071" offset="0%"/>
            <stop stop-color="#2DA771" offset="6.85%"/>
            <stop stop-color="#15CF74" offset="47.62%"/>
            <stop stop-color="#06E775" offset="80.09%"/>
            <stop stop-color="#00F076" offset="100%"/>
        </linearGradient>
    </defs>
    <g id="Welcome" stroke="none" stroke-width="1" fill="none" fill-rule="evenodd">
        <g id="Desktop-HD-android" transform="translate(-40.000000, -605.000000)" fill-rule="nonzero">
            <g id="gplay" transform="translate(41.000000, 606.000000)">
                <g id="Group">
                    <rect id="Rectangle-path" fill-opacity="0" fill="#FFFFFF" x="0" y="0" width="162" height="48"/>
                    <path d="M81.72,26.16 C78.84,26.16 76.56,28.32 76.56,31.32 C76.56,34.2 78.84,36.48 81.72,36.48 C84.6,36.48 86.88,34.32 86.88,31.32 C86.88,28.2 84.6,26.16 81.72,26.16 Z M81.72,34.32 C80.16,34.32 78.84,33 78.84,31.2 C78.84,29.4 80.16,28.08 81.72,28.08 C83.28,28.08 84.6,29.28 84.6,31.2 C84.6,33 83.28,34.32 81.72,34.32 Z M70.56,26.16 C67.68,26.16 65.4,28.32 65.4,31.32 C65.4,34.2 67.68,36.48 70.56,36.48 C73.44,36.48 75.72,34.32 75.72,31.32 C75.72,28.2 73.44,26.16 70.56,26.16 Z M70.56,34.32 C69,34.32 67.68,33 67.68,31.2 C67.68,29.4 69,28.08 70.56,28.08 C72.12,28.08 73.44,29.28 73.44,31.2 C73.44,33 72.12,34.32 70.56,34.32 Z M57.24,27.72 L57.24,29.88 L62.4,29.88 C62.28,31.08 61.8,32.04 61.2,32.64 C60.48,33.36 59.28,34.2 57.24,34.2 C54,34.2 51.6,31.68 51.6,28.44 C51.6,25.2 54.12,22.68 57.24,22.68 C58.92,22.68 60.24,23.4 61.2,24.24 L62.76,22.68 C61.44,21.48 59.76,20.52 57.36,20.52 C53.04,20.52 49.32,24.12 49.32,28.44 C49.32,32.76 53.04,36.36 57.36,36.36 C59.76,36.36 61.44,35.64 62.88,34.08 C64.32,32.64 64.8,30.6 64.8,29.04 C64.8,28.56 64.8,28.08 64.68,27.72 L57.24,27.72 Z M111.72,29.4 C111.24,28.2 110.04,26.16 107.4,26.16 C104.76,26.16 102.6,28.2 102.6,31.32 C102.6,34.2 104.76,36.48 107.64,36.48 C109.92,36.48 111.36,35.04 111.84,34.2 L110.16,33 C109.56,33.84 108.84,34.44 107.64,34.44 C106.44,34.44 105.72,33.96 105.12,32.88 L111.96,30 L111.72,29.4 Z M104.76,31.08 C104.76,29.16 106.32,28.08 107.4,28.08 C108.24,28.08 109.08,28.56 109.32,29.16 L104.76,31.08 Z M99.12,36 L101.4,36 L101.4,21 L99.12,21 L99.12,36 Z M95.52,27.24 C94.92,26.64 93.96,26.04 92.76,26.04 C90.24,26.04 87.84,28.32 87.84,31.2 C87.84,34.08 90.12,36.24 92.76,36.24 C93.96,36.24 94.92,35.64 95.4,35.04 L95.52,35.04 L95.52,35.76 C95.52,37.68 94.44,38.76 92.76,38.76 C91.44,38.76 90.48,37.8 90.24,36.96 L88.32,37.8 C88.92,39.12 90.36,40.8 92.88,40.8 C95.52,40.8 97.68,39.24 97.68,35.52 L97.68,26.4 L95.52,26.4 L95.52,27.24 Z M92.88,34.32 C91.32,34.32 90,33 90,31.2 C90,29.4 91.32,28.08 92.88,28.08 C94.44,28.08 95.64,29.4 95.64,31.2 C95.64,33 94.44,34.32 92.88,34.32 Z M122.16,21 L116.76,21 L116.76,36 L119.04,36 L119.04,30.36 L122.16,30.36 C124.68,30.36 127.08,28.56 127.08,25.68 C127.08,22.8 124.68,21 122.16,21 Z M122.28,28.2 L119.04,28.2 L119.04,23.04 L122.28,23.04 C123.96,23.04 124.92,24.48 124.92,25.56 C124.8,26.88 123.84,28.2 122.28,28.2 Z M136.08,26.04 C134.4,26.04 132.72,26.76 132.12,28.32 L134.16,29.16 C134.64,28.32 135.36,28.08 136.2,28.08 C137.4,28.08 138.48,28.8 138.6,30 L138.6,30.12 C138.24,29.88 137.28,29.52 136.32,29.52 C134.16,29.52 132,30.72 132,32.88 C132,34.92 133.8,36.24 135.72,36.24 C137.28,36.24 138,35.52 138.6,34.8 L138.72,34.8 L138.72,36 L140.88,36 L140.88,30.24 C140.64,27.6 138.6,26.04 136.08,26.04 Z M135.84,34.32 C135.12,34.32 134.04,33.96 134.04,33 C134.04,31.8 135.36,31.44 136.44,31.44 C137.4,31.44 137.88,31.68 138.48,31.92 C138.24,33.36 137.04,34.32 135.84,34.32 Z M148.44,26.4 L145.92,32.88 L145.8,32.88 L143.16,26.4 L140.76,26.4 L144.72,35.52 L142.44,40.56 L144.72,40.56 L150.84,26.4 L148.44,26.4 Z M128.28,36 L130.56,36 L130.56,21 L128.28,21 L128.28,36 Z" id="Shape" fill="#333333"/>
                    <g transform="translate(12.000000, 8.400000)" id="Shape">
                        <path d="M0.48,0.6 C0.12,0.96 0,1.56 0,2.28 L0,28.8 C0,29.52 0.24,30.12 0.6,30.48 L0.72,30.6 L15.6,15.72 L15.6,15.6 L15.6,15.48 L0.48,0.6 Z" fill="url(#linearGradient-1)"/>
                        <path d="M20.4,20.76 L15.48,15.84 L15.48,15.6 L15.48,15.48 L20.4,10.56 L20.52,10.68 L26.4,14.04 C28.08,15 28.08,16.56 26.4,17.52 L20.4,20.76 Z" fill="url(#linearGradient-2)"/>
                        <path d="M20.52,20.64 L15.48,15.6 L0.48,30.6 C1.08,31.2 1.92,31.2 3,30.72 L20.52,20.64" fill="url(#linearGradient-3)"/>
                        <path d="M20.52,10.56 L3,0.6 C1.92,0 1.08,0.12 0.48,0.72 L15.48,15.6 L20.52,10.56 Z" fill="url(#linearGradient-4)"/>
                        <g transform="translate(0.000000, 20.400000)" fill="#000000">
                            <path d="M20.4,0.12 L3,9.96 C2.04,10.56 1.2,10.44 0.6,9.96 L0.48,10.08 L0.6,10.2 C1.2,10.68 2.04,10.8 3,10.2 L20.4,0.12 Z" opacity="0.2"/>
                            <path d="M0.48,9.96 C0.12,9.6 0,9 0,8.28 L0,8.4 C0,9.12 0.24,9.72 0.6,10.08 L0.6,9.96 L0.48,9.96 Z" opacity="0.12"/>
                        </g>
                        <path d="M26.4,17.16 L20.4,20.52 L20.52,20.64 L26.4,17.28 C27.24,16.8 27.6,16.2 27.6,15.6 C27.6,16.2 27.12,16.68 26.4,17.16 Z" fill="#000000" opacity="0.12"/>
                        <path d="M3,0.72 L26.4,14.04 C27.12,14.52 27.6,15 27.6,15.6 C27.6,15 27.24,14.4 26.4,13.92 L3,0.6 C1.32,-0.36 0,0.36 0,2.28 L0,2.4 C0,0.6 1.32,-0.24 3,0.72 Z" fill="#FFFFFF" opacity="0.25"/>
                    </g>
                </g>
                <g id="Group" transform="translate(49.200000, 7.200000)" fill="#000000" stroke="#000000" stroke-width="0.5">
                    <path d="M1.32,9.96 L0.48,9.96 L0.48,7.56 L1.2,7.56 C1.8,7.08 2.16,6.12 2.16,4.8 L2.16,1.2 L6.96,1.2 L6.96,7.56 L7.8,7.56 L7.8,9.96 L6.96,9.96 L6.96,8.4 L1.44,8.4 L1.44,9.96 L1.32,9.96 Z M3,4.8 C3,5.88 2.76,6.84 2.28,7.56 L5.88,7.56 L5.88,2.04 L3,2.04 L3,4.8 Z" id="Shape"/>
                    <path d="M14.88,7.44 C14.16,8.16 13.32,8.52 12.24,8.52 C11.16,8.52 10.32,8.16 9.6,7.44 C8.88,6.72 8.52,5.88 8.52,4.8 C8.52,3.72 8.88,2.88 9.6,2.16 C10.32,1.44 11.16,1.08 12.24,1.08 C13.32,1.08 14.16,1.44 14.88,2.16 C15.6,2.88 15.96,3.72 15.96,4.8 C15.96,5.88 15.6,6.72 14.88,7.44 Z M10.32,6.84 C10.8,7.32 11.52,7.68 12.24,7.68 C12.96,7.68 13.68,7.44 14.16,6.84 C14.64,6.36 15,5.64 15,4.8 C15,3.96 14.76,3.24 14.16,2.76 C13.68,2.28 12.96,1.92 12.24,1.92 C11.52,1.92 10.8,2.16 10.32,2.76 C9.84,3.24 9.48,3.96 9.48,4.8 C9.48,5.64 9.72,6.36 10.32,6.84 Z" id="Shape"/>
                    <path d="M20.64,8.52 C19.56,8.52 18.72,8.16 18,7.44 C17.28,6.72 16.92,5.88 16.92,4.8 C16.92,3.72 17.28,2.88 18,2.16 C18.72,1.44 19.56,1.08 20.64,1.08 C21.72,1.08 22.56,1.44 23.28,2.28 L22.68,2.88 C22.2,2.28 21.48,1.92 20.64,1.92 C19.8,1.92 19.2,2.16 18.6,2.76 C18,3.24 17.76,3.96 17.76,4.8 C17.76,5.64 18,6.36 18.6,6.84 C19.08,7.32 19.8,7.68 20.64,7.68 C21.48,7.68 22.2,7.32 22.8,6.6 L23.4,7.2 C23.04,7.56 22.68,7.92 22.2,8.16 C21.72,8.4 21.24,8.52 20.64,8.52 Z" id="Shape"/>
                    <polygon id="Shape" points="27.24 8.4 26.28 8.4 26.28 2.04 24.24 2.04 24.24 1.2 29.16 1.2 29.16 2.04 27.12 2.04 27.12 8.4"/>
                    <path d="M35.52,1.2 L32.76,7.32 C32.4,8.16 31.8,8.64 31.08,8.64 C30.84,8.64 30.6,8.64 30.36,8.52 L30.6,7.68 C30.72,7.8 30.96,7.8 31.08,7.8 C31.32,7.8 31.44,7.8 31.56,7.68 C31.68,7.56 31.8,7.44 31.92,7.2 L32.16,6.6 L29.76,1.32 L30.84,1.32 L32.64,5.4 L34.44,1.2 L35.52,1.2 Z" id="Shape"/>
                    <polygon id="Shape" points="36.6 8.4 36.6 1.2 41.76 1.2 41.76 8.4 40.8 8.4 40.8 2.04 37.44 2.04 37.44 8.4" />
                    <polygon id="Shape" points="43.44 8.4 43.44 1.2 44.4 1.2 44.4 4.32 48 4.32 48 1.2 48.96 1.2 48.96 8.4 48 8.4 48 5.16 44.4 5.16 44.4 8.4"/>
                    <path d="M56.52,7.44 C55.8,8.16 54.96,8.52 53.88,8.52 C52.8,8.52 51.96,8.16 51.24,7.44 C50.52,6.72 50.16,5.88 50.16,4.8 C50.16,3.72 50.52,2.88 51.24,2.16 C51.96,1.44 52.8,1.08 53.88,1.08 C54.96,1.08 55.8,1.44 56.52,2.16 C57.24,2.88 57.6,3.72 57.6,4.8 C57.48,5.88 57.12,6.72 56.52,7.44 Z M51.84,6.84 C52.32,7.32 53.04,7.68 53.76,7.68 C54.48,7.68 55.2,7.44 55.68,6.84 C56.16,6.36 56.52,5.64 56.52,4.8 C56.52,3.96 56.28,3.24 55.68,2.76 C55.2,2.28 54.48,1.92 53.76,1.92 C53.04,1.92 52.32,2.16 51.84,2.76 C51.36,3.24 51,3.96 51,4.8 C51,5.64 51.36,6.36 51.84,6.84 Z" id="Shape"/>
                    <path d="M61.32,8.4 L61.32,1.2 L63.96,1.2 C64.56,1.2 65.04,1.44 65.4,1.8 C65.76,2.16 66,2.64 66,3.12 C66,3.48 65.88,3.72 65.76,4.08 C65.64,4.32 65.4,4.56 65.04,4.68 C65.4,4.8 65.64,5.04 65.88,5.28 C66.12,5.52 66.24,5.88 66.24,6.36 C66.24,6.96 66,7.44 65.64,7.8 C65.16,8.16 64.68,8.4 64.08,8.4 L61.32,8.4 Z M62.28,4.32 L63.96,4.32 C64.32,4.32 64.56,4.2 64.8,3.96 C65.04,3.72 65.16,3.48 65.16,3.24 C65.16,3 64.92,2.64 64.8,2.4 C64.56,2.16 64.32,2.04 63.96,2.04 L62.28,2.04 L62.28,4.32 Z M62.28,7.56 L64.2,7.56 C64.56,7.56 64.8,7.44 65.04,7.2 C65.28,6.96 65.4,6.72 65.4,6.36 C65.4,6.12 65.28,5.76 65.04,5.52 C64.8,5.28 64.56,5.16 64.2,5.16 L62.4,5.16 L62.4,7.56 L62.28,7.56 Z" id="Shape"/>
                </g>
            </g>
        </g>
    </g>
</svg>